Normalized EMG Linear Envelopes
nRows=32
nColumns=17

endheader
time	        VM	        VL	        RF	       GRA	        TA	   ADDLONG	   SEMIMEM	      BFLH	        GM	        GL	       TFL	   GLUTMAX	   GLUTMED	      PIRI	    OBTINT	        QF	
2.1235	  0.004864	  0.000000	  0.033874	  0.306544	  0.121890	  0.419049	  0.056018	  0.049418	  0.085465	  0.083178	  0.222565	  0.001287	  0.434699	  0.147165	  0.350207	  0.178145	
2.124	  0.004797	  0.000000	  0.034111	  0.308171	  0.123985	  0.420848	  0.056205	  0.049409	  0.083085	  0.080527	  0.224735	  0.001470	  0.433988	  0.146379	  0.348062	  0.177756	
2.1245	  0.004740	  0.000000	  0.034356	  0.309761	  0.126127	  0.422593	  0.056392	  0.049406	  0.080757	  0.077937	  0.226916	  0.001658	  0.433164	  0.145607	  0.345915	  0.177332	
2.125	  0.004693	  0.000000	  0.034608	  0.311313	  0.128315	  0.424286	  0.056579	  0.049408	  0.078482	  0.075406	  0.229111	  0.001849	  0.432229	  0.144849	  0.343768	  0.176875	
2.1255	  0.004656	  0.000000	  0.034868	  0.312828	  0.130548	  0.425927	  0.056767	  0.049414	  0.076259	  0.072936	  0.231320	  0.002045	  0.431183	  0.144105	  0.341621	  0.176385	
2.126	  0.004628	  0.000000	  0.035135	  0.314307	  0.132827	  0.427516	  0.056954	  0.049425	  0.074089	  0.070525	  0.233542	  0.002244	  0.430027	  0.143377	  0.339476	  0.175863	
2.1265	  0.004610	  0.000000	  0.035411	  0.315750	  0.135151	  0.429053	  0.057141	  0.049440	  0.071970	  0.068172	  0.235777	  0.002446	  0.428763	  0.142663	  0.337332	  0.175310	
2.127	  0.004600	  0.000000	  0.035694	  0.317158	  0.137519	  0.430538	  0.057329	  0.049459	  0.069902	  0.065878	  0.238027	  0.002652	  0.427391	  0.141965	  0.335190	  0.174728	
2.1275	  0.004599	  0.000000	  0.035986	  0.318530	  0.139930	  0.431972	  0.057516	  0.049483	  0.067885	  0.063642	  0.240291	  0.002862	  0.425913	  0.141283	  0.333052	  0.174118	
2.128	  0.004606	  0.000000	  0.036287	  0.319866	  0.142385	  0.433354	  0.057704	  0.049510	  0.065918	  0.061463	  0.242569	  0.003074	  0.424328	  0.140618	  0.330917	  0.173480	
2.1285	  0.004621	  0.000000	  0.036597	  0.321168	  0.144883	  0.434685	  0.057891	  0.049541	  0.064001	  0.059341	  0.244861	  0.003289	  0.422639	  0.139969	  0.328785	  0.172816	
2.129	  0.004643	  0.000000	  0.036915	  0.322435	  0.147422	  0.435966	  0.058078	  0.049576	  0.062134	  0.057274	  0.247168	  0.003507	  0.420847	  0.139336	  0.326657	  0.172127	
2.1295	  0.004674	  0.000000	  0.037244	  0.323668	  0.150003	  0.437196	  0.058266	  0.049614	  0.060316	  0.055264	  0.249489	  0.003727	  0.418953	  0.138721	  0.324534	  0.171414	
2.13	  0.004711	  0.000000	  0.037581	  0.324867	  0.152624	  0.438377	  0.058453	  0.049656	  0.058546	  0.053308	  0.251825	  0.003950	  0.416959	  0.138123	  0.322415	  0.170677	
2.1305	  0.004756	  0.000000	  0.037929	  0.326031	  0.155286	  0.439509	  0.058640	  0.049700	  0.056825	  0.051406	  0.254174	  0.004175	  0.414868	  0.137542	  0.320300	  0.169918	
2.131	  0.004807	  0.000000	  0.038287	  0.327160	  0.157986	  0.440592	  0.058827	  0.049748	  0.055151	  0.049558	  0.256538	  0.004403	  0.412681	  0.136978	  0.318190	  0.169139	
2.1315	  0.004865	  0.000000	  0.038654	  0.328256	  0.160725	  0.441627	  0.059015	  0.049799	  0.053524	  0.047763	  0.258915	  0.004632	  0.410402	  0.136432	  0.316084	  0.168339	
2.132	  0.004929	  0.000000	  0.039033	  0.329318	  0.163501	  0.442615	  0.059202	  0.049852	  0.051943	  0.046021	  0.261306	  0.004863	  0.408032	  0.135904	  0.313982	  0.167520	
2.1325	  0.005000	  0.000000	  0.039422	  0.330345	  0.166314	  0.443557	  0.059390	  0.049908	  0.050408	  0.044330	  0.263710	  0.005096	  0.405574	  0.135394	  0.311885	  0.166682	
2.133	  0.005075	  0.000000	  0.039822	  0.331340	  0.169162	  0.444452	  0.059577	  0.049967	  0.048919	  0.042690	  0.266127	  0.005331	  0.403032	  0.134902	  0.309792	  0.165828	
2.1335	  0.005157	  0.000000	  0.040233	  0.332302	  0.172045	  0.445302	  0.059765	  0.050028	  0.047474	  0.041100	  0.268557	  0.005567	  0.400409	  0.134427	  0.307703	  0.164957	
2.134	  0.005244	  0.000000	  0.040656	  0.333233	  0.174962	  0.446106	  0.059952	  0.050092	  0.046073	  0.039560	  0.270998	  0.005804	  0.397709	  0.133972	  0.305619	  0.164070	
2.1345	  0.005336	  0.000000	  0.041090	  0.334133	  0.177911	  0.446866	  0.060140	  0.050158	  0.044715	  0.038068	  0.273451	  0.006042	  0.394933	  0.133534	  0.303540	  0.163169	
2.135	  0.005432	  0.000000	  0.041537	  0.335003	  0.180891	  0.447580	  0.060327	  0.050225	  0.043401	  0.036625	  0.275915	  0.006282	  0.392086	  0.133116	  0.301465	  0.162254	
2.1355	  0.005533	  0.000000	  0.041996	  0.335844	  0.183902	  0.448251	  0.060515	  0.050295	  0.042128	  0.035229	  0.278389	  0.006522	  0.389172	  0.132716	  0.299394	  0.161325	
2.136	  0.005639	  0.000000	  0.042467	  0.336657	  0.186941	  0.448876	  0.060702	  0.050366	  0.040897	  0.033879	  0.280872	  0.006764	  0.386193	  0.132336	  0.297328	  0.160385	
2.1365	  0.005749	  0.000000	  0.042950	  0.337443	  0.190009	  0.449457	  0.060888	  0.050439	  0.039707	  0.032576	  0.283364	  0.007005	  0.383152	  0.131974	  0.295266	  0.159433	
2.137	  0.005862	  0.000000	  0.043447	  0.338203	  0.193102	  0.449994	  0.061075	  0.050514	  0.038558	  0.031317	  0.285863	  0.007248	  0.380054	  0.131633	  0.293209	  0.158471	
2.1375	  0.005980	  0.000000	  0.043957	  0.338938	  0.196221	  0.450486	  0.061260	  0.050589	  0.037447	  0.030102	  0.288369	  0.007490	  0.376900	  0.131311	  0.291156	  0.157500	
2.138	  0.006101	  0.000000	  0.044481	  0.339647	  0.199362	  0.450932	  0.061445	  0.050666	  0.036376	  0.028932	  0.290881	  0.007733	  0.373694	  0.131009	  0.289107	  0.156520	
2.1385	  0.006225	  0.000000	  0.045018	  0.340333	  0.202526	  0.451335	  0.061629	  0.050745	  0.035342	  0.027803	  0.293397	  0.007976	  0.370439	  0.130727	  0.287061	  0.155532	
2.139	  0.006353	  0.000000	  0.045570	  0.340995	  0.205711	  0.451692	  0.061813	  0.050824	  0.034346	  0.026717	  0.295917	  0.008218	  0.367137	  0.130465	  0.285020	  0.154537	
